<?xml version="1.0" standalone="no"?><!DOCTYPE svg PUBLIC "-//W3C//DTD SVG 1.1//EN" "http://www.w3.org/Graphics/SVG/1.1/DTD/svg11.dtd"><svg t="1766287133588" class="icon" viewBox="0 0 1024 1024" version="1.1" xmlns="http://www.w3.org/2000/svg" p-id="1385" xmlns:xlink="http://www.w3.org/1999/xlink" width="200" height="200"><path d="M237.296371 65.721098C226.706253 70.67822 217.242744 80.141729 213.862964 89.15455 206.202005 108.982855 215.665515 133.092317 234.367189 142.330415L244.281342 147.062215 511.287589 147.062215C767.027574 147.062215 778.519068 146.836893 787.306522 142.781148 819.75284 128.135196 818.175589 80.817649 784.828052 65.721098 776.265716 61.665309 762.295819 61.439987 511.062177 61.439987 258.025963 61.439987 245.858594 61.665309 237.296371 65.721098Z" fill="#1296db" p-id="1386"></path><path d="M475.236125 192.351867C384.656731 201.139411 300.837077 241.246665 236.169763 306.815266 205.75134 337.684332 185.922989 365.624217 166.545372 405.055506 144.013207 450.570434 133.648411 484.368727 128.01537 530.784897 124.410178 558.048907 126.212797 618.43511 131.169873 645.023065 159.335034 797.791144 274.699765 918.788871 425.43995 953.488406 473.20814 964.529167 544.18446 965.655775 588.572871 955.966944 708.218555 930.280276 803.30436 856.600095 857.381556 747.995059 920.471618 621.138879 909.205536 471.750669 828.089741 356.160707 762.295819 262.4269 662.027684 203.843271 547.339054 192.351867 521.426973 189.648007 503.17592 189.648007 475.236125 192.351867ZM377.446438 386.804452C392.542989 394.014745 401.105212 406.182114 402.457141 423.081305 404.93568 453.049017 377.446438 476.933022 349.05591 469.272176 331.030178 464.540422 315.032341 444.486795 315.032341 426.461063 315.032341 409.561939 329.002283 390.63492 345.676085 384.776557 358.068776 380.270124 364.152461 380.720767 377.446438 386.804452ZM712.950377 517.716331C813.443834 551.289303 863.465241 663.950083 818.851554 756.557282 778.969621 839.700972 689.967479 877.555009 603.894698 848.037873 576.8561 838.574363 562.210283 829.110854 538.100776 805.001437 519.849722 786.750383 515.117967 780.441377 506.105101 762.190323 491.90977 733.12383 487.628726 715.098098 487.854002 684.454354 487.854002 654.486574 492.135159 634.883523 504.302528 609.64761 529.763784 556.922299 577.982708 521.321478 636.115627 511.857878 657.521251 508.478144 693.347439 511.182094 712.950377 517.716331Z" fill="#1296db" p-id="1387"></path><path d="M644.452595 577.651891C605.922593 582.383645 570.09645 613.02739 558.379724 651.332071 549.59227 679.497322 553.64797 715.548787 568.068465 740.334123 576.180135 753.853467 598.486978 774.132371 613.132886 781.117342 645.12856 796.213848 685.461136 794.861963 714.978272 777.962839 728.722983 770.076581 749.677807 748.671024 756.212134 736.278333 773.561902 702.254764 771.759328 657.866399 751.931023 626.772011 736.609151 602.662684 705.965339 581.482359 682.531954 578.553177 662.478327 576.074639 658.422583 576.074639 644.452595 577.651891ZM685.010493 647.050959C710.922482 664.85137 711.598447 704.282659 686.362422 721.181783 673.969641 729.293272 655.042623 730.645292 642.650022 724.336286 609.302418 707.21184 608.175809 665.302013 640.622195 644.572466 650.310958 638.263415 674.195053 639.615345 685.010493 647.050959Z" fill="#1296db" p-id="1388"></path></svg>